# xmcd
#
# Track frame offsets: 
#        150
#        14417
#        31256
#        42234
#        55955
#        68938
#        83736
#        93025
#        103653
#        116820
#        124917
#        136793
#        147521
#        158373
#        171266
#        187167
#        194498
#        205547
#        220237
#        235593
#        246698
#        257770
#
# Disc length: 3604 seconds
#
# Revision: 0
# Processed by: cddbd v1.5.2PL0 Copyright (c) Steve Scherf et al.
# Submitted via: ExactAudioCopyFreeDBPlugin 1.0
#
DISCID=3d0e1216
DTITLE=Jonis - Linksma kaimiska muzikike
DYEAR=1997
DGENRE=Country
TTITLE0=Ant kalno akmuo
TTITLE1=Piemenu giesme
TTITLE2=Uz degtines buteliuka
TTITLE3=Bajorelis
TTITLE4=Valsas
TTITLE5=Zemaicio nutikimai Vilniuje
TTITLE6=Apie tris pacias
TTITLE7=Mergyte
TTITLE8=Namo, rugeliai...
TTITLE9=Grandskveras
TTITLE10=Kaledojant po Naujikus
TTITLE11=Dviratininku kalneliai
TTITLE12=Zalias gojus
TTITLE13=Lenku zemej daugel vietu
TTITLE14=Magdele
TTITLE15=Rudenelis
TTITLE16=Country bliuzas
TTITLE17=Paklausykit, moteriskes
TTITLE18=Trys malunai
TTITLE19=Raudoni dobilai
TTITLE20=Mamuneli
TTITLE21=Karveleli, paukstuzeli...
EXTD=
EXTT0=
EXTT1=
EXTT2=
EXTT3=
EXTT4=
EXTT5=
EXTT6=
EXTT7=
EXTT8=
EXTT9=
EXTT10=
EXTT11=
EXTT12=
EXTT13=
EXTT14=
EXTT15=
EXTT16=
EXTT17=
EXTT18=
EXTT19=
EXTT20=
EXTT21=
PLAYORDER=
